HIERARCHY
ROOT root
{
	OFFSET 0.000000 0.000000 0.000000
	CHANNELS 6 Xposition Yposition Zposition Zrotation Yrotation Xrotation
	JOINT lhip
	{
		OFFSET 0.058581 -0.082280 -0.017664
		CHANNELS 3 Zrotation Yrotation Xrotation
		JOINT lknee
		{
			OFFSET 0.043451 -0.386469 0.008037
			CHANNELS 3 Zrotation Yrotation Xrotation
			JOINT lankle
			{
				OFFSET -0.014790 -0.426874 -0.037428
				CHANNELS 3 Zrotation Yrotation Xrotation
				JOINT ltoe
				{
					OFFSET 0.041054 -0.060286 0.122042
					CHANNELS 3 Zrotation Yrotation Xrotation
					End Site
					{
						OFFSET 0.000000 0.000000 0.000000
					}
				}
			}
		}
	}
	JOINT rhip
	{
		OFFSET -0.060310 -0.090513 -0.013543
		CHANNELS 3 Zrotation Yrotation Xrotation
		JOINT rknee
		{
			OFFSET -0.043257 -0.383688 -0.004843
			CHANNELS 3 Zrotation Yrotation Xrotation
			JOINT rankle
			{
				OFFSET 0.019056 -0.420046 -0.034562
				CHANNELS 3 Zrotation Yrotation Xrotation
				JOINT rtoe
				{
					OFFSET -0.034840 -0.062106 0.130323
					CHANNELS 3 Zrotation Yrotation Xrotation
					End Site
					{
						OFFSET 0.000000 0.000000 0.000000
					}
				}
			}
		}
	}
	JOINT lowerback
	{
		OFFSET 0.004439 0.124404 -0.038385
		CHANNELS 3 Zrotation Yrotation Xrotation
		JOINT upperback
		{
			OFFSET 0.004488 0.137956 0.026820
			CHANNELS 3 Zrotation Yrotation Xrotation
			JOINT chest
			{
				OFFSET -0.002265 0.056032 0.002855
				CHANNELS 3 Zrotation Yrotation Xrotation
				JOINT lowerneck
				{
					OFFSET -0.013390 0.211636 -0.033468
					CHANNELS 3 Zrotation Yrotation Xrotation
					JOINT upperneck
					{
						OFFSET 0.010113 0.088937 0.050410
						CHANNELS 3 Zrotation Yrotation Xrotation
						End Site
						{
							OFFSET 0.000000 0.000000 0.000000
						}
					}
				}
				JOINT lclavicle
				{
					OFFSET 0.071702 0.114000 -0.018898
					CHANNELS 3 Zrotation Yrotation Xrotation
					JOINT lshoulder
					{
						OFFSET 0.122921 0.045205 -0.019046
						CHANNELS 3 Zrotation Yrotation Xrotation
						JOINT lelbow
						{
							OFFSET 0.255332 -0.015649 -0.022946
							CHANNELS 3 Zrotation Yrotation Xrotation
							JOINT lwrist
							{
								OFFSET 0.265709 0.012698 -0.007375
								CHANNELS 3 Zrotation Yrotation Xrotation
								End Site
								{
									OFFSET 0.000000 0.000000 0.000000
								}
							}
						}
					}
				}
				JOINT rclavicle
				{
					OFFSET -0.082954 0.112472 -0.023707
					CHANNELS 3 Zrotation Yrotation Xrotation
					JOINT rshoulder
					{
						OFFSET -0.113228 0.046853 -0.008472
						CHANNELS 3 Zrotation Yrotation Xrotation
						JOINT relbow
						{
							OFFSET -0.260127 -0.014369 -0.031269
							CHANNELS 3 Zrotation Yrotation Xrotation
							JOINT rwrist
							{
								OFFSET -0.269108 0.006794 -0.006027
								CHANNELS 3 Zrotation Yrotation Xrotation
								End Site
								{
									OFFSET 0.000000 0.000000 0.000000
								}
							}
						}
					}
				}
			}
		}
	}
}
MOTION
Frames: 8
Frame Time: 0.033333
-2.083405 0.340820 0.991196 -178.456573 -3.358584 87.888694 3.991733 -6.274413 -25.642798 0.157395 10.512767 35.960568 0.841145 14.222568 -10.755837 0.000000 -0.000000 0.000000 11.082361 0.434338 8.951274 -6.115470 4.973926 0.207176 -4.864547 -11.263041 -15.479652 0.000000 -0.000000 0.000000 -4.924196 8.333563 12.749492 -1.115863 -2.231574 -1.713467 -0.436558 1.441139 5.713525 6.960526 -5.132272 -11.402515 9.448990 -17.130029 -1.853564 -21.063903 2.249755 -1.074956 -54.142901 -1.570500 11.552735 -3.801046 -23.140042 20.992019 -6.167098 -0.024385 -9.488857 20.775102 7.319502 -2.952518 56.873640 15.957661 19.376032 -8.165655 32.182230 12.032704 -18.029964 0.668731 -6.394186 
-2.086160 0.375736 0.986855 178.981871 -3.241366 87.772800 3.499141 -7.428602 -26.347714 0.193644 10.486858 23.304991 0.372108 14.341598 -9.039429 0.000000 -0.000000 0.000000 9.627315 -0.490294 12.104903 -4.338787 5.925726 -0.232771 -4.835188 -9.626830 -16.110223 0.000000 -0.000000 0.000000 -4.676324 9.517911 12.323595 -1.069864 -2.415494 -0.962348 -0.259049 1.512089 5.957374 6.988540 -3.180408 -11.607553 8.539093 -17.347611 -2.286689 -21.393537 2.757157 -1.417098 -54.983637 -0.518962 12.252368 -4.277797 -21.952437 21.212306 -6.391950 -0.002958 -9.146237 21.471005 8.014716 -2.649498 55.797928 19.800798 19.942096 -6.806589 34.428712 12.940240 -19.749383 1.469203 -6.607848 
-2.088590 0.410296 0.982374 176.527606 -2.579339 88.364128 2.994745 -6.466670 -26.668269 0.910199 8.426014 10.720993 -1.770343 11.947331 -7.171986 0.000000 -0.000000 0.000000 10.322946 -1.514767 13.757966 -5.650443 6.496238 0.758130 -4.349118 -8.678026 -17.239461 0.000000 -0.000000 0.000000 -4.091450 9.843521 11.186522 -1.107151 -2.264117 0.076988 -0.083600 2.197837 5.362967 7.013180 -1.892975 -11.393610 8.076740 -17.157219 -2.475040 -21.824983 2.597531 -1.930909 -55.306259 0.819778 12.406657 -4.792378 -20.709181 21.580303 -7.314634 -0.138278 -8.481337 21.579403 9.201524 -2.275788 55.073424 21.565427 20.157107 -6.315875 37.496882 13.690652 -20.049564 2.381186 -6.771731 
-2.091211 0.447039 0.977597 174.670103 -2.046695 88.483418 1.629768 -5.355649 -25.898484 3.201003 5.616256 0.810026 -1.928934 10.968792 -6.266923 0.000000 -0.000000 0.000000 9.534822 -3.215761 15.942559 -5.306089 7.192590 1.831278 -3.418911 -7.146693 -17.496179 0.000000 -0.000000 0.000000 -3.206921 10.079936 10.715647 -1.444841 -2.119872 0.556768 -0.049852 2.706066 5.090966 7.065382 -1.211535 -11.274308 7.814170 -16.948093 -2.499643 -22.120761 2.350974 -2.386326 -55.166681 1.692712 12.366929 -5.405094 -20.026455 21.856029 -7.067003 0.392284 -7.921074 21.466610 10.026440 -2.311831 54.906057 22.346671 20.118302 -4.936372 40.512531 14.509164 -21.357462 3.266668 -6.476049 
-2.093331 0.485408 0.973367 172.564232 -1.759539 88.853420 1.133452 -4.237991 -26.483502 3.517106 4.456758 -1.062571 -1.287497 10.616591 -6.208775 0.000000 -0.000000 0.000000 8.293439 -4.027395 17.166597 -4.945144 8.562340 4.560095 -2.221046 -5.387111 -17.371321 0.000000 -0.000000 0.000000 -2.965639 10.365499 9.863424 -1.416051 -1.844758 0.793693 -0.059135 3.215010 5.109464 7.093857 -0.847371 -11.630119 7.525341 -16.342161 -2.337842 -22.606035 2.138760 -2.763479 -54.690056 2.156138 12.021983 -5.753787 -19.687740 21.394912 -5.826603 0.546880 -8.595000 21.550412 10.356129 -2.258392 55.060813 22.556100 20.480351 -4.257104 43.299322 15.564079 -20.594346 4.271557 -6.474208 
-2.094484 0.527145 0.971203 170.301487 -1.751518 88.964185 1.804924 -5.668486 -26.503475 2.308787 5.086965 3.979913 -1.064238 11.154567 -6.355984 0.000000 -0.000000 0.000000 6.268537 -3.651998 18.460724 -3.808830 9.412728 8.050798 -0.609180 -3.090970 -15.432996 0.000000 -0.000000 0.000000 -2.940149 11.225250 8.923844 -1.299561 -1.790707 1.349090 -0.428565 3.310955 4.625543 7.430549 -0.226325 -11.347922 7.130184 -15.741579 -2.042591 -22.818977 2.006425 -2.969534 -54.213976 2.394851 11.181239 -4.758988 -19.066498 19.463221 -5.716623 0.369303 -6.257284 22.267195 10.207128 -2.276576 55.560512 21.753586 21.157404 -3.362070 45.577424 17.113222 -19.821121 4.685898 -6.629268 
-2.096728 0.572878 0.970657 168.829769 -2.310004 89.075913 1.173351 -8.246296 -24.392947 1.173370 6.313595 7.582182 0.660170 11.760678 -6.977401 0.000000 -0.000000 0.000000 4.417257 -2.337599 20.158921 -3.084317 10.558918 10.721736 1.814724 -2.539980 -10.988378 0.000000 -0.000000 0.000000 -3.561686 11.726703 7.518928 -1.056798 -1.793550 1.974392 -0.746156 3.335173 3.974751 7.726473 -0.594751 -10.112263 7.092356 -14.803220 -2.098074 -22.605700 1.771928 -2.468029 -54.247489 1.692385 10.771736 -3.486994 -17.643770 17.007896 -5.396625 0.265469 -4.706559 22.296692 9.451415 -2.394230 56.944009 19.220982 22.625727 -3.959079 47.334369 16.623108 -18.618263 5.095950 -7.019143 
-2.098872 0.620077 0.972395 168.741430 -2.914427 89.857854 -0.478549 -10.519321 -22.640038 1.393955 3.420900 7.268578 3.051180 13.200945 -1.068673 0.000000 -0.000000 0.000000 2.587465 -1.454705 18.538531 -1.456605 9.813722 17.009312 5.120569 -1.497692 -2.544978 0.000000 -0.000000 0.000000 -4.474209 11.121749 5.601983 -0.566533 -2.167499 1.849978 -0.887324 2.901318 3.857795 7.676560 -1.326194 -8.328193 7.571256 -13.226075 -3.015969 -22.965584 1.295840 -1.791027 -53.845633 0.538968 11.012051 -2.328661 -15.492451 14.082375 -4.759660 0.842883 -2.677529 22.403424 7.930363 -2.974906 57.860043 15.867333 23.908905 -3.057332 48.145254 17.393030 -15.705230 4.757433 -7.706929 
